<svg width="52" height="52" viewBox="0 0 52 52" fill="none" xmlns="http://www.w3.org/2000/svg">
<rect width="52" height="52" rx="10" fill="#2C2F32"/>
<path d="M15.1869 23.2348C13.8497 20.8914 14.5884 17.9269 16.8369 16.6135C19.0854 15.3001 21.9922 16.135 23.3294 18.4785L29.1995 28.7652C30.5367 31.1086 29.798 34.0731 27.5495 35.3866C25.301 36.7 22.3942 35.865 21.057 33.5216L15.1869 23.2348Z" fill="url(#paint0_linear_291_1837)"/>
<path d="M39.2364 20.692C39.2364 23.3238 37.1359 25.4572 34.5449 25.4572C31.9539 25.4572 29.8535 23.3238 29.8535 20.692C29.8535 18.0602 31.9539 15.9268 34.5449 15.9268C37.1359 15.9268 39.2364 18.0602 39.2364 20.692Z" fill="url(#paint1_linear_291_1837)"/>
<defs>
<linearGradient id="paint0_linear_291_1837" x1="16.8369" y1="16.6135" x2="27.442" y2="35.002" gradientUnits="userSpaceOnUse">
<stop stop-color="#1DC071"/>
<stop offset="1" stop-color="#77D9AA"/>
</linearGradient>
<linearGradient id="paint1_linear_291_1837" x1="34.5449" y1="15.9268" x2="34.5219" y2="25.2866" gradientUnits="userSpaceOnUse">
<stop stop-color="#1DC071"/>
<stop offset="1" stop-color="#77D9AA"/>
</linearGradient>
</defs>
</svg>
